<svg width="357" height="131" viewBox="0 0 357 131" fill="none" xmlns="http://www.w3.org/2000/svg">
<g clip-path="url(#clip0_6579_23929)">
<rect width="357" height="131" rx="7" fill="url(#paint0_linear_6579_23929)"/>
<path d="M24.26 42V29.4H28.778C29.786 29.4 30.614 29.574 31.262 29.922C31.91 30.258 32.39 30.714 32.702 31.29C33.026 31.854 33.188 32.496 33.188 33.216C33.188 33.888 33.032 34.512 32.72 35.088C32.408 35.664 31.922 36.126 31.262 36.474C30.614 36.822 29.774 36.996 28.742 36.996H26.42V42H24.26ZM30.83 42L28.184 36.438H30.542L33.314 42H30.83ZM26.42 35.394H28.652C29.444 35.394 30.026 35.202 30.398 34.818C30.782 34.422 30.974 33.906 30.974 33.27C30.974 32.646 30.788 32.148 30.416 31.776C30.044 31.392 29.45 31.2 28.634 31.2H26.42V35.394ZM39.0536 42.216C38.1656 42.216 37.3736 42.024 36.6776 41.64C35.9936 41.244 35.4536 40.698 35.0576 40.002C34.6736 39.294 34.4816 38.478 34.4816 37.554C34.4816 36.606 34.6736 35.778 35.0576 35.07C35.4416 34.35 35.9756 33.786 36.6596 33.378C37.3556 32.97 38.1596 32.766 39.0716 32.766C39.9596 32.766 40.7336 32.964 41.3936 33.36C42.0536 33.756 42.5636 34.284 42.9236 34.944C43.2956 35.604 43.4816 36.342 43.4816 37.158C43.4816 37.278 43.4756 37.41 43.4636 37.554C43.4636 37.698 43.4576 37.854 43.4456 38.022H36.0476V36.618H41.3036C41.2676 35.982 41.0396 35.478 40.6196 35.106C40.2116 34.722 39.6956 34.53 39.0716 34.53C38.6276 34.53 38.2136 34.632 37.8296 34.836C37.4576 35.04 37.1576 35.34 36.9296 35.736C36.7136 36.132 36.6056 36.63 36.6056 37.23V37.752C36.6056 38.316 36.7136 38.802 36.9296 39.21C37.1456 39.606 37.4336 39.912 37.7936 40.128C38.1656 40.332 38.5796 40.434 39.0356 40.434C39.5396 40.434 39.9536 40.326 40.2776 40.11C40.6136 39.894 40.8656 39.606 41.0336 39.246H43.2116C43.0556 39.798 42.7796 40.302 42.3836 40.758C41.9996 41.202 41.5256 41.556 40.9616 41.82C40.4096 42.084 39.7736 42.216 39.0536 42.216ZM45.89 42V31.938C45.89 31.242 46.004 30.684 46.232 30.264C46.472 29.832 46.814 29.52 47.258 29.328C47.702 29.136 48.23 29.04 48.842 29.04H49.886V30.876H49.166C48.77 30.876 48.482 30.96 48.302 31.128C48.134 31.284 48.05 31.56 48.05 31.956V42H45.89ZM44.612 34.8V32.982H50.066V34.8H44.612ZM55.8231 42.216C54.9351 42.216 54.1431 42.024 53.4471 41.64C52.7631 41.244 52.2231 40.698 51.8271 40.002C51.4431 39.294 51.2511 38.478 51.2511 37.554C51.2511 36.606 51.4431 35.778 51.8271 35.07C52.2111 34.35 52.7451 33.786 53.4291 33.378C54.1251 32.97 54.9291 32.766 55.8411 32.766C56.7291 32.766 57.5031 32.964 58.1631 33.36C58.8231 33.756 59.3331 34.284 59.6931 34.944C60.0651 35.604 60.2511 36.342 60.2511 37.158C60.2511 37.278 60.2451 37.41 60.2331 37.554C60.2331 37.698 60.2271 37.854 60.2151 38.022H52.8171V36.618H58.0731C58.0371 35.982 57.8091 35.478 57.3891 35.106C56.9811 34.722 56.4651 34.53 55.8411 34.53C55.3971 34.53 54.9831 34.632 54.5991 34.836C54.2271 35.04 53.9271 35.34 53.6991 35.736C53.4831 36.132 53.3751 36.63 53.3751 37.23V37.752C53.3751 38.316 53.4831 38.802 53.6991 39.21C53.9151 39.606 54.2031 39.912 54.5631 40.128C54.9351 40.332 55.3491 40.434 55.8051 40.434C56.3091 40.434 56.7231 40.326 57.0471 40.11C57.3831 39.894 57.6351 39.606 57.8031 39.246H59.9811C59.8251 39.798 59.5491 40.302 59.1531 40.758C58.7691 41.202 58.2951 41.556 57.7311 41.82C57.1791 42.084 56.5431 42.216 55.8231 42.216ZM62.2275 42V32.982H64.1535L64.3515 34.674C64.5675 34.278 64.8315 33.942 65.1435 33.666C65.4675 33.378 65.8395 33.156 66.2595 33C66.6915 32.844 67.1715 32.766 67.6995 32.766V35.052H67.0155C66.6435 35.052 66.2955 35.1 65.9715 35.196C65.6475 35.28 65.3655 35.424 65.1255 35.628C64.8855 35.82 64.6995 36.09 64.5675 36.438C64.4475 36.786 64.3875 37.218 64.3875 37.734V42H62.2275ZM73.76 42V29.4H81.806V31.146H75.92V34.836H80.726V36.546H75.92V42H73.76ZM83.5849 42V32.982H85.5109L85.7089 34.674C85.9249 34.278 86.1889 33.942 86.5009 33.666C86.8249 33.378 87.1969 33.156 87.6169 33C88.0489 32.844 88.5289 32.766 89.0569 32.766V35.052H88.3729C88.0009 35.052 87.6529 35.1 87.3289 35.196C87.0049 35.28 86.7229 35.424 86.4829 35.628C86.2429 35.82 86.0569 36.09 85.9249 36.438C85.8049 36.786 85.7449 37.218 85.7449 37.734V42H83.5849ZM90.7589 42V32.982H92.9189V42H90.7589ZM91.8389 31.524C91.4429 31.524 91.1129 31.404 90.8489 31.164C90.5969 30.912 90.4709 30.606 90.4709 30.246C90.4709 29.874 90.5969 29.574 90.8489 29.346C91.1129 29.106 91.4429 28.986 91.8389 28.986C92.2349 28.986 92.5589 29.106 92.8109 29.346C93.0749 29.574 93.2069 29.874 93.2069 30.246C93.2069 30.606 93.0749 30.912 92.8109 31.164C92.5589 31.404 92.2349 31.524 91.8389 31.524ZM99.6454 42.216C98.7574 42.216 97.9654 42.024 97.2694 41.64C96.5854 41.244 96.0454 40.698 95.6494 40.002C95.2654 39.294 95.0734 38.478 95.0734 37.554C95.0734 36.606 95.2654 35.778 95.6494 35.07C96.0334 34.35 96.5674 33.786 97.2514 33.378C97.9474 32.97 98.7514 32.766 99.6634 32.766C100.551 32.766 101.325 32.964 101.985 33.36C102.645 33.756 103.155 34.284 103.515 34.944C103.887 35.604 104.073 36.342 104.073 37.158C104.073 37.278 104.067 37.41 104.055 37.554C104.055 37.698 104.049 37.854 104.037 38.022H96.6394V36.618H101.895C101.859 35.982 101.631 35.478 101.211 35.106C100.803 34.722 100.287 34.53 99.6634 34.53C99.2194 34.53 98.8054 34.632 98.4214 34.836C98.0494 35.04 97.7494 35.34 97.5214 35.736C97.3054 36.132 97.1974 36.63 97.1974 37.23V37.752C97.1974 38.316 97.3054 38.802 97.5214 39.21C97.7374 39.606 98.0254 39.912 98.3854 40.128C98.7574 40.332 99.1714 40.434 99.6274 40.434C100.131 40.434 100.545 40.326 100.869 40.11C101.205 39.894 101.457 39.606 101.625 39.246H103.803C103.647 39.798 103.371 40.302 102.975 40.758C102.591 41.202 102.117 41.556 101.553 41.82C101.001 42.084 100.365 42.216 99.6454 42.216ZM106.05 42V32.982H107.958L108.102 34.512C108.39 33.984 108.792 33.564 109.308 33.252C109.836 32.928 110.448 32.766 111.144 32.766C111.876 32.766 112.5 32.922 113.016 33.234C113.532 33.534 113.928 33.984 114.204 34.584C114.492 35.172 114.636 35.91 114.636 36.798V42H112.476V36.996C112.476 36.228 112.308 35.64 111.972 35.232C111.648 34.812 111.15 34.602 110.478 34.602C110.046 34.602 109.656 34.71 109.308 34.926C108.96 35.13 108.69 35.43 108.498 35.826C108.306 36.21 108.21 36.684 108.21 37.248V42H106.05ZM120.945 42.216C120.093 42.216 119.337 42.012 118.677 41.604C118.029 41.196 117.513 40.638 117.129 39.93C116.757 39.21 116.571 38.394 116.571 37.482C116.571 36.582 116.757 35.778 117.129 35.07C117.513 34.35 118.035 33.786 118.695 33.378C119.367 32.97 120.129 32.766 120.981 32.766C121.653 32.766 122.247 32.898 122.763 33.162C123.279 33.426 123.681 33.792 123.969 34.26V29.04H126.129V42H124.203L123.987 40.686C123.795 40.95 123.561 41.202 123.285 41.442C123.009 41.67 122.679 41.856 122.295 42C121.911 42.144 121.461 42.216 120.945 42.216ZM121.395 40.344C121.911 40.344 122.361 40.224 122.745 39.984C123.141 39.732 123.447 39.396 123.663 38.976C123.891 38.544 124.005 38.052 124.005 37.5C124.005 36.936 123.891 36.444 123.663 36.024C123.447 35.592 123.141 35.256 122.745 35.016C122.349 34.776 121.893 34.656 121.377 34.656C120.885 34.656 120.441 34.776 120.045 35.016C119.649 35.256 119.337 35.592 119.109 36.024C118.893 36.444 118.785 36.93 118.785 37.482C118.785 38.046 118.893 38.544 119.109 38.976C119.337 39.396 119.649 39.732 120.045 39.984C120.441 40.224 120.891 40.344 121.395 40.344ZM132.168 42.216C131.376 42.216 130.68 42.09 130.08 41.838C129.492 41.574 129.024 41.214 128.676 40.758C128.328 40.29 128.124 39.756 128.064 39.156H130.224C130.284 39.408 130.392 39.642 130.548 39.858C130.716 40.062 130.932 40.224 131.196 40.344C131.46 40.464 131.778 40.524 132.15 40.524C132.498 40.524 132.786 40.476 133.014 40.38C133.242 40.272 133.41 40.134 133.518 39.966C133.626 39.798 133.68 39.624 133.68 39.444C133.68 39.156 133.602 38.94 133.446 38.796C133.302 38.64 133.08 38.52 132.78 38.436C132.48 38.34 132.126 38.25 131.718 38.166C131.31 38.07 130.908 37.962 130.512 37.842C130.116 37.722 129.756 37.566 129.432 37.374C129.108 37.182 128.85 36.942 128.658 36.654C128.466 36.354 128.37 35.988 128.37 35.556C128.37 35.028 128.508 34.554 128.784 34.134C129.072 33.714 129.48 33.384 130.008 33.144C130.548 32.892 131.184 32.766 131.916 32.766C132.972 32.766 133.812 33.012 134.436 33.504C135.072 33.984 135.444 34.662 135.552 35.538H133.5C133.44 35.202 133.272 34.944 132.996 34.764C132.72 34.572 132.36 34.476 131.916 34.476C131.448 34.476 131.088 34.566 130.836 34.746C130.596 34.914 130.476 35.136 130.476 35.412C130.476 35.604 130.554 35.772 130.71 35.916C130.866 36.06 131.088 36.186 131.376 36.294C131.664 36.39 132.012 36.48 132.42 36.564C133.08 36.708 133.662 36.87 134.166 37.05C134.682 37.218 135.09 37.476 135.39 37.824C135.702 38.16 135.858 38.652 135.858 39.3C135.87 39.864 135.72 40.368 135.408 40.812C135.108 41.256 134.682 41.604 134.13 41.856C133.578 42.096 132.924 42.216 132.168 42.216ZM137.036 44.214L138.062 39.822H140.168L138.458 44.214H137.036ZM151.936 42.216C150.748 42.216 149.71 41.946 148.822 41.406C147.934 40.866 147.244 40.116 146.752 39.156C146.26 38.184 146.014 37.05 146.014 35.754C146.014 34.47 146.266 33.336 146.77 32.352C147.274 31.356 147.994 30.582 148.93 30.03C149.878 29.466 150.994 29.184 152.278 29.184C153.742 29.184 154.96 29.538 155.932 30.246C156.904 30.942 157.528 31.914 157.804 33.162H155.374C155.194 32.538 154.84 32.052 154.312 31.704C153.796 31.356 153.118 31.182 152.278 31.182C151.426 31.182 150.694 31.368 150.082 31.74C149.47 32.1 149.002 32.628 148.678 33.324C148.366 34.008 148.21 34.824 148.21 35.772C148.21 36.72 148.372 37.536 148.696 38.22C149.02 38.904 149.476 39.426 150.064 39.786C150.652 40.134 151.342 40.308 152.134 40.308C153.31 40.308 154.198 39.978 154.798 39.318C155.398 38.658 155.752 37.8 155.86 36.744H152.602V35.106H158.038V42H156.04L155.878 40.272C155.602 40.68 155.278 41.034 154.906 41.334C154.546 41.622 154.126 41.844 153.646 42C153.166 42.144 152.596 42.216 151.936 42.216ZM164.526 42.216C163.638 42.216 162.846 42.024 162.15 41.64C161.466 41.244 160.926 40.698 160.53 40.002C160.146 39.294 159.954 38.478 159.954 37.554C159.954 36.606 160.146 35.778 160.53 35.07C160.914 34.35 161.448 33.786 162.132 33.378C162.828 32.97 163.632 32.766 164.544 32.766C165.432 32.766 166.206 32.964 166.866 33.36C167.526 33.756 168.036 34.284 168.396 34.944C168.768 35.604 168.954 36.342 168.954 37.158C168.954 37.278 168.948 37.41 168.936 37.554C168.936 37.698 168.93 37.854 168.918 38.022H161.52V36.618H166.776C166.74 35.982 166.512 35.478 166.092 35.106C165.684 34.722 165.168 34.53 164.544 34.53C164.1 34.53 163.686 34.632 163.302 34.836C162.93 35.04 162.63 35.34 162.402 35.736C162.186 36.132 162.078 36.63 162.078 37.23V37.752C162.078 38.316 162.186 38.802 162.402 39.21C162.618 39.606 162.906 39.912 163.266 40.128C163.638 40.332 164.052 40.434 164.508 40.434C165.012 40.434 165.426 40.326 165.75 40.11C166.086 39.894 166.338 39.606 166.506 39.246H168.684C168.528 39.798 168.252 40.302 167.856 40.758C167.472 41.202 166.998 41.556 166.434 41.82C165.882 42.084 165.246 42.216 164.526 42.216ZM174.661 42C174.061 42 173.533 41.904 173.077 41.712C172.621 41.52 172.267 41.202 172.015 40.758C171.775 40.314 171.655 39.714 171.655 38.958V34.8H170.107V32.982H171.655L171.907 30.624H173.815V32.982H176.281V34.8H173.815V38.958C173.815 39.414 173.911 39.732 174.103 39.912C174.295 40.08 174.631 40.164 175.111 40.164H176.209V42H174.661ZM187.173 42.216C186.273 42.216 185.493 42.054 184.833 41.73C184.173 41.406 183.657 40.968 183.285 40.416C182.913 39.852 182.691 39.216 182.619 38.508H184.725C184.833 39.048 185.103 39.498 185.535 39.858C185.979 40.206 186.531 40.38 187.191 40.38C187.671 40.38 188.085 40.266 188.433 40.038C188.793 39.798 189.069 39.474 189.261 39.066C189.465 38.658 189.567 38.208 189.567 37.716C189.567 37.188 189.465 36.732 189.261 36.348C189.057 35.964 188.781 35.67 188.433 35.466C188.085 35.25 187.683 35.142 187.227 35.142C186.663 35.142 186.177 35.274 185.769 35.538C185.361 35.802 185.067 36.132 184.887 36.528H182.817L183.879 29.4H190.809V31.29H185.481L184.905 34.386C185.181 34.086 185.547 33.846 186.003 33.666C186.459 33.474 186.981 33.378 187.569 33.378C188.229 33.378 188.811 33.492 189.315 33.72C189.819 33.948 190.245 34.266 190.593 34.674C190.941 35.07 191.205 35.526 191.385 36.042C191.565 36.558 191.655 37.104 191.655 37.68C191.655 38.328 191.547 38.928 191.331 39.48C191.115 40.032 190.809 40.512 190.413 40.92C190.029 41.328 189.561 41.646 189.009 41.874C188.457 42.102 187.845 42.216 187.173 42.216ZM198.317 42.216C197.417 42.216 196.637 42.054 195.977 41.73C195.317 41.406 194.801 40.968 194.429 40.416C194.057 39.852 193.835 39.216 193.763 38.508H195.869C195.977 39.048 196.247 39.498 196.679 39.858C197.123 40.206 197.675 40.38 198.335 40.38C198.815 40.38 199.229 40.266 199.577 40.038C199.937 39.798 200.213 39.474 200.405 39.066C200.609 38.658 200.711 38.208 200.711 37.716C200.711 37.188 200.609 36.732 200.405 36.348C200.201 35.964 199.925 35.67 199.577 35.466C199.229 35.25 198.827 35.142 198.371 35.142C197.807 35.142 197.321 35.274 196.913 35.538C196.505 35.802 196.211 36.132 196.031 36.528H193.961L195.023 29.4H201.953V31.29H196.625L196.049 34.386C196.325 34.086 196.691 33.846 197.147 33.666C197.603 33.474 198.125 33.378 198.713 33.378C199.373 33.378 199.955 33.492 200.459 33.72C200.963 33.948 201.389 34.266 201.737 34.674C202.085 35.07 202.349 35.526 202.529 36.042C202.709 36.558 202.799 37.104 202.799 37.68C202.799 38.328 202.691 38.928 202.475 39.48C202.259 40.032 201.953 40.512 201.557 40.92C201.173 41.328 200.705 41.646 200.153 41.874C199.601 42.102 198.989 42.216 198.317 42.216ZM210.074 42.216C208.934 42.216 207.95 41.946 207.122 41.406C206.306 40.854 205.676 40.092 205.232 39.12C204.8 38.136 204.584 36.996 204.584 35.7C204.584 34.404 204.8 33.27 205.232 32.298C205.676 31.314 206.306 30.552 207.122 30.012C207.95 29.46 208.934 29.184 210.074 29.184C211.226 29.184 212.204 29.46 213.008 30.012C213.824 30.552 214.454 31.314 214.898 32.298C215.342 33.27 215.564 34.404 215.564 35.7C215.564 36.996 215.342 38.136 214.898 39.12C214.454 40.092 213.824 40.854 213.008 41.406C212.192 41.946 211.214 42.216 210.074 42.216ZM210.074 40.272C210.722 40.272 211.292 40.092 211.784 39.732C212.276 39.36 212.66 38.832 212.936 38.148C213.212 37.464 213.35 36.648 213.35 35.7C213.35 34.752 213.212 33.936 212.936 33.252C212.66 32.568 212.276 32.046 211.784 31.686C211.292 31.314 210.722 31.128 210.074 31.128C209.438 31.128 208.868 31.314 208.364 31.686C207.872 32.046 207.482 32.568 207.194 33.252C206.918 33.936 206.78 34.752 206.78 35.7C206.78 36.648 206.918 37.464 207.194 38.148C207.482 38.832 207.872 39.36 208.364 39.732C208.868 40.092 209.438 40.272 210.074 40.272ZM222.695 42.216C221.555 42.216 220.571 41.946 219.743 41.406C218.927 40.854 218.297 40.092 217.853 39.12C217.421 38.136 217.205 36.996 217.205 35.7C217.205 34.404 217.421 33.27 217.853 32.298C218.297 31.314 218.927 30.552 219.743 30.012C220.571 29.46 221.555 29.184 222.695 29.184C223.847 29.184 224.825 29.46 225.629 30.012C226.445 30.552 227.075 31.314 227.519 32.298C227.963 33.27 228.185 34.404 228.185 35.7C228.185 36.996 227.963 38.136 227.519 39.12C227.075 40.092 226.445 40.854 225.629 41.406C224.813 41.946 223.835 42.216 222.695 42.216ZM222.695 40.272C223.343 40.272 223.913 40.092 224.405 39.732C224.897 39.36 225.281 38.832 225.557 38.148C225.833 37.464 225.971 36.648 225.971 35.7C225.971 34.752 225.833 33.936 225.557 33.252C225.281 32.568 224.897 32.046 224.405 31.686C223.913 31.314 223.343 31.128 222.695 31.128C222.059 31.128 221.489 31.314 220.985 31.686C220.493 32.046 220.103 32.568 219.815 33.252C219.539 33.936 219.401 34.752 219.401 35.7C219.401 36.648 219.539 37.464 219.815 38.148C220.103 38.832 220.493 39.36 220.985 39.732C221.489 40.092 222.059 40.272 222.695 40.272Z" fill="#F9F9FF"/>
<path d="M27.512 70.144C26.72 70.144 26.028 69.964 25.436 69.604C24.844 69.244 24.384 68.74 24.056 68.092C23.728 67.444 23.564 66.688 23.564 65.824C23.564 64.968 23.728 64.212 24.056 63.556C24.392 62.9 24.868 62.388 25.484 62.02C26.108 61.644 26.844 61.456 27.692 61.456C28.644 61.456 29.44 61.688 30.08 62.152C30.72 62.608 31.132 63.244 31.316 64.06H29.948C29.828 63.596 29.576 63.232 29.192 62.968C28.808 62.696 28.304 62.56 27.68 62.56C27.088 62.56 26.572 62.692 26.132 62.956C25.7 63.22 25.368 63.596 25.136 64.084C24.904 64.572 24.788 65.152 24.788 65.824C24.788 66.504 24.904 67.088 25.136 67.576C25.368 68.064 25.696 68.436 26.12 68.692C26.544 68.948 27.032 69.076 27.584 69.076C28.432 69.076 29.068 68.832 29.492 68.344C29.924 67.856 30.176 67.204 30.248 66.388H27.932V65.464H31.46V70H30.368L30.26 68.716C30.068 69.028 29.844 69.292 29.588 69.508C29.34 69.716 29.048 69.876 28.712 69.988C28.376 70.092 27.976 70.144 27.512 70.144ZM35.4761 70.144C34.9001 70.144 34.3881 70.012 33.9401 69.748C33.4921 69.484 33.1401 69.116 32.8841 68.644C32.6361 68.172 32.5121 67.624 32.5121 67C32.5121 66.36 32.6361 65.804 32.8841 65.332C33.1401 64.852 33.4921 64.48 33.9401 64.216C34.3881 63.944 34.9081 63.808 35.5001 63.808C36.0921 63.808 36.6001 63.94 37.0241 64.204C37.4481 64.468 37.7761 64.82 38.0081 65.26C38.2401 65.692 38.3561 66.172 38.3561 66.7C38.3561 66.78 38.3521 66.868 38.3441 66.964C38.3441 67.052 38.3401 67.152 38.3321 67.264H33.3881V66.412H37.1561C37.1321 65.908 36.9641 65.516 36.6521 65.236C36.3401 64.948 35.9521 64.804 35.4881 64.804C35.1601 64.804 34.8601 64.88 34.5881 65.032C34.3161 65.176 34.0961 65.392 33.9281 65.68C33.7681 65.96 33.6881 66.316 33.6881 66.748V67.084C33.6881 67.532 33.7681 67.912 33.9281 68.224C34.0961 68.528 34.3161 68.76 34.5881 68.92C34.8601 69.072 35.1561 69.148 35.4761 69.148C35.8601 69.148 36.1761 69.064 36.4241 68.896C36.6721 68.728 36.8561 68.5 36.9761 68.212H38.1761C38.0721 68.58 37.8961 68.912 37.6481 69.208C37.4001 69.496 37.0921 69.724 36.7241 69.892C36.3641 70.06 35.9481 70.144 35.4761 70.144ZM41.7812 70C41.3972 70 41.0652 69.94 40.7852 69.82C40.5052 69.7 40.2892 69.5 40.1372 69.22C39.9852 68.94 39.9092 68.56 39.9092 68.08V64.972H38.8652V63.952H39.9092L40.0532 62.44H41.1092V63.952H42.8252V64.972H41.1092V68.092C41.1092 68.436 41.1812 68.672 41.3252 68.8C41.4692 68.92 41.7172 68.98 42.0692 68.98H42.7652V70H41.7812ZM46.7988 70V61.6H49.6668C50.3388 61.6 50.8908 61.712 51.3228 61.936C51.7548 62.16 52.0748 62.46 52.2828 62.836C52.4908 63.212 52.5948 63.64 52.5948 64.12C52.5948 64.576 52.4908 64.996 52.2828 65.38C52.0828 65.756 51.7668 66.06 51.3348 66.292C50.9028 66.516 50.3468 66.628 49.6668 66.628H47.9988V70H46.7988ZM47.9988 65.632H49.6188C50.2508 65.632 50.6988 65.496 50.9628 65.224C51.2348 64.944 51.3708 64.576 51.3708 64.12C51.3708 63.632 51.2348 63.256 50.9628 62.992C50.6988 62.728 50.2508 62.596 49.6188 62.596H47.9988V65.632ZM55.2762 70.144C54.7802 70.144 54.3682 70.06 54.0402 69.892C53.7122 69.724 53.4682 69.5 53.3082 69.22C53.1482 68.932 53.0682 68.624 53.0682 68.296C53.0682 67.896 53.1722 67.556 53.3802 67.276C53.5882 66.988 53.8842 66.768 54.2682 66.616C54.6522 66.464 55.1122 66.388 55.6482 66.388H57.2202C57.2202 66.036 57.1682 65.744 57.0642 65.512C56.9602 65.28 56.8042 65.108 56.5962 64.996C56.3962 64.876 56.1402 64.816 55.8282 64.816C55.4682 64.816 55.1602 64.904 54.9042 65.08C54.6482 65.248 54.4882 65.5 54.4242 65.836H53.2242C53.2722 65.412 53.4162 65.052 53.6562 64.756C53.9042 64.452 54.2202 64.22 54.6042 64.06C54.9882 63.892 55.3962 63.808 55.8282 63.808C56.3962 63.808 56.8722 63.908 57.2562 64.108C57.6402 64.308 57.9282 64.592 58.1202 64.96C58.3202 65.32 58.4202 65.752 58.4202 66.256V70H57.3762L57.2802 68.98C57.1922 69.14 57.0882 69.292 56.9682 69.436C56.8482 69.58 56.7042 69.704 56.5362 69.808C56.3762 69.912 56.1882 69.992 55.9722 70.048C55.7642 70.112 55.5322 70.144 55.2762 70.144ZM55.5042 69.172C55.7602 69.172 55.9922 69.12 56.2002 69.016C56.4082 68.912 56.5842 68.772 56.7282 68.596C56.8802 68.412 56.9922 68.208 57.0642 67.984C57.1442 67.752 57.1882 67.516 57.1962 67.276V67.24H55.7682C55.4242 67.24 55.1442 67.284 54.9282 67.372C54.7202 67.452 54.5682 67.564 54.4722 67.708C54.3762 67.852 54.3282 68.02 54.3282 68.212C54.3282 68.412 54.3722 68.584 54.4602 68.728C54.5562 68.864 54.6922 68.972 54.8682 69.052C55.0442 69.132 55.2562 69.172 55.5042 69.172ZM59.7959 70V63.952H60.9959V70H59.7959ZM60.4079 62.812C60.1759 62.812 59.9839 62.74 59.8319 62.596C59.6879 62.452 59.6159 62.268 59.6159 62.044C59.6159 61.828 59.6879 61.652 59.8319 61.516C59.9839 61.372 60.1759 61.3 60.4079 61.3C60.6319 61.3 60.8199 61.372 60.9719 61.516C61.1239 61.652 61.1999 61.828 61.1999 62.044C61.1999 62.268 61.1239 62.452 60.9719 62.596C60.8199 62.74 60.6319 62.812 60.4079 62.812ZM65.1599 70.144C64.5839 70.144 64.0759 70.008 63.6359 69.736C63.1959 69.456 62.8519 69.08 62.6039 68.608C62.3639 68.128 62.2439 67.584 62.2439 66.976C62.2439 66.36 62.3639 65.816 62.6039 65.344C62.8519 64.872 63.1959 64.5 63.6359 64.228C64.0839 63.948 64.5959 63.808 65.1719 63.808C65.6439 63.808 66.0599 63.904 66.4199 64.096C66.7799 64.28 67.0599 64.544 67.2599 64.888V61.36H68.4599V70H67.3799L67.2599 69.064C67.1399 69.248 66.9839 69.424 66.7919 69.592C66.5999 69.752 66.3679 69.884 66.0959 69.988C65.8239 70.092 65.5119 70.144 65.1599 70.144ZM65.3519 69.1C65.7279 69.1 66.0599 69.012 66.3479 68.836C66.6359 68.66 66.8559 68.412 67.0079 68.092C67.1679 67.772 67.2479 67.4 67.2479 66.976C67.2479 66.552 67.1679 66.184 67.0079 65.872C66.8559 65.552 66.6359 65.304 66.3479 65.128C66.0599 64.944 65.7279 64.852 65.3519 64.852C64.9919 64.852 64.6679 64.944 64.3799 65.128C64.0919 65.304 63.8679 65.552 63.7079 65.872C63.5479 66.184 63.4679 66.552 63.4679 66.976C63.4679 67.4 63.5479 67.772 63.7079 68.092C63.8679 68.412 64.0919 68.66 64.3799 68.836C64.6679 69.012 64.9919 69.1 65.3519 69.1ZM75.4272 70.144C74.8512 70.144 74.3392 70.012 73.8912 69.748C73.4432 69.484 73.0912 69.116 72.8352 68.644C72.5872 68.172 72.4632 67.624 72.4632 67C72.4632 66.36 72.5872 65.804 72.8352 65.332C73.0912 64.852 73.4432 64.48 73.8912 64.216C74.3392 63.944 74.8592 63.808 75.4512 63.808C76.0432 63.808 76.5512 63.94 76.9752 64.204C77.3992 64.468 77.7272 64.82 77.9592 65.26C78.1912 65.692 78.3072 66.172 78.3072 66.7C78.3072 66.78 78.3032 66.868 78.2952 66.964C78.2952 67.052 78.2912 67.152 78.2832 67.264H73.3392V66.412H77.1072C77.0832 65.908 76.9152 65.516 76.6032 65.236C76.2912 64.948 75.9032 64.804 75.4392 64.804C75.1112 64.804 74.8112 64.88 74.5392 65.032C74.2672 65.176 74.0472 65.392 73.8792 65.68C73.7192 65.96 73.6392 66.316 73.6392 66.748V67.084C73.6392 67.532 73.7192 67.912 73.8792 68.224C74.0472 68.528 74.2672 68.76 74.5392 68.92C74.8112 69.072 75.1072 69.148 75.4272 69.148C75.8112 69.148 76.1272 69.064 76.3752 68.896C76.6232 68.728 76.8072 68.5 76.9272 68.212H78.1272C78.0232 68.58 77.8472 68.912 77.5992 69.208C77.3512 69.496 77.0432 69.724 76.6752 69.892C76.3152 70.06 75.8992 70.144 75.4272 70.144ZM80.882 70L78.614 63.952H79.874L81.59 68.848L83.318 63.952H84.554L82.298 70H80.882ZM87.8378 70.144C87.2618 70.144 86.7498 70.012 86.3018 69.748C85.8538 69.484 85.5018 69.116 85.2458 68.644C84.9978 68.172 84.8738 67.624 84.8738 67C84.8738 66.36 84.9978 65.804 85.2458 65.332C85.5018 64.852 85.8538 64.48 86.3018 64.216C86.7498 63.944 87.2698 63.808 87.8618 63.808C88.4538 63.808 88.9618 63.94 89.3858 64.204C89.8098 64.468 90.1378 64.82 90.3698 65.26C90.6018 65.692 90.7178 66.172 90.7178 66.7C90.7178 66.78 90.7138 66.868 90.7058 66.964C90.7058 67.052 90.7018 67.152 90.6938 67.264H85.7498V66.412H89.5178C89.4938 65.908 89.3258 65.516 89.0138 65.236C88.7018 64.948 88.3138 64.804 87.8498 64.804C87.5218 64.804 87.2218 64.88 86.9498 65.032C86.6778 65.176 86.4578 65.392 86.2898 65.68C86.1298 65.96 86.0498 66.316 86.0498 66.748V67.084C86.0498 67.532 86.1298 67.912 86.2898 68.224C86.4578 68.528 86.6778 68.76 86.9498 68.92C87.2218 69.072 87.5178 69.148 87.8378 69.148C88.2218 69.148 88.5378 69.064 88.7858 68.896C89.0338 68.728 89.2178 68.5 89.3378 68.212H90.5378C90.4338 68.58 90.2578 68.912 90.0098 69.208C89.7618 69.496 89.4538 69.724 89.0858 69.892C88.7258 70.06 88.3098 70.144 87.8378 70.144ZM91.811 70V63.952H92.891L92.999 65.092C93.135 64.82 93.311 64.592 93.527 64.408C93.743 64.216 93.995 64.068 94.283 63.964C94.579 63.86 94.915 63.808 95.291 63.808V65.08H94.859C94.611 65.08 94.375 65.112 94.151 65.176C93.927 65.232 93.727 65.332 93.551 65.476C93.383 65.62 93.251 65.816 93.155 66.064C93.059 66.312 93.011 66.62 93.011 66.988V70H91.811ZM96.849 72.64L98.325 69.328H97.977L95.589 63.952H96.885L98.781 68.344L100.689 63.952H101.949L98.109 72.64H96.849ZM108.095 70C107.711 70 107.379 69.94 107.099 69.82C106.819 69.7 106.603 69.5 106.451 69.22C106.299 68.94 106.223 68.56 106.223 68.08V64.972H105.179V63.952H106.223L106.367 62.44H107.423V63.952H109.139V64.972H107.423V68.092C107.423 68.436 107.495 68.672 107.639 68.8C107.783 68.92 108.031 68.98 108.383 68.98H109.079V70H108.095ZM110.306 70V63.952H111.506V70H110.306ZM110.918 62.812C110.686 62.812 110.494 62.74 110.342 62.596C110.198 62.452 110.126 62.268 110.126 62.044C110.126 61.828 110.198 61.652 110.342 61.516C110.494 61.372 110.686 61.3 110.918 61.3C111.142 61.3 111.33 61.372 111.482 61.516C111.634 61.652 111.71 61.828 111.71 62.044C111.71 62.268 111.634 62.452 111.482 62.596C111.33 62.74 111.142 62.812 110.918 62.812ZM112.982 70V63.952H114.062L114.146 64.804C114.338 64.492 114.594 64.248 114.914 64.072C115.234 63.896 115.594 63.808 115.994 63.808C116.298 63.808 116.574 63.852 116.822 63.94C117.07 64.02 117.29 64.144 117.482 64.312C117.674 64.48 117.83 64.688 117.95 64.936C118.166 64.584 118.454 64.308 118.814 64.108C119.182 63.908 119.57 63.808 119.978 63.808C120.466 63.808 120.886 63.908 121.238 64.108C121.59 64.3 121.858 64.592 122.042 64.984C122.226 65.368 122.318 65.848 122.318 66.424V70H121.13V66.544C121.13 65.984 121.014 65.56 120.782 65.272C120.558 64.984 120.226 64.84 119.786 64.84C119.49 64.84 119.226 64.916 118.994 65.068C118.762 65.22 118.578 65.44 118.442 65.728C118.314 66.016 118.25 66.368 118.25 66.784V70H117.05V66.544C117.05 65.984 116.934 65.56 116.702 65.272C116.478 64.984 116.146 64.84 115.706 64.84C115.426 64.84 115.17 64.916 114.938 65.068C114.706 65.22 114.522 65.44 114.386 65.728C114.25 66.016 114.182 66.368 114.182 66.784V70H112.982ZM126.365 70.144C125.789 70.144 125.277 70.012 124.829 69.748C124.381 69.484 124.029 69.116 123.773 68.644C123.525 68.172 123.401 67.624 123.401 67C123.401 66.36 123.525 65.804 123.773 65.332C124.029 64.852 124.381 64.48 124.829 64.216C125.277 63.944 125.797 63.808 126.389 63.808C126.981 63.808 127.489 63.94 127.913 64.204C128.337 64.468 128.665 64.82 128.897 65.26C129.129 65.692 129.245 66.172 129.245 66.7C129.245 66.78 129.241 66.868 129.233 66.964C129.233 67.052 129.229 67.152 129.221 67.264H124.277V66.412H128.045C128.021 65.908 127.853 65.516 127.541 65.236C127.229 64.948 126.841 64.804 126.377 64.804C126.049 64.804 125.749 64.88 125.477 65.032C125.205 65.176 124.985 65.392 124.817 65.68C124.657 65.96 124.577 66.316 124.577 66.748V67.084C124.577 67.532 124.657 67.912 124.817 68.224C124.985 68.528 125.205 68.76 125.477 68.92C125.749 69.072 126.045 69.148 126.365 69.148C126.749 69.148 127.065 69.064 127.313 68.896C127.561 68.728 127.745 68.5 127.865 68.212H129.065C128.961 68.58 128.785 68.912 128.537 69.208C128.289 69.496 127.981 69.724 127.613 69.892C127.253 70.06 126.837 70.144 126.365 70.144ZM133.864 72.64L135.34 69.328H134.992L132.604 63.952H133.9L135.796 68.344L137.704 63.952H138.964L135.124 72.64H133.864ZM141.993 70.144C141.425 70.144 140.913 70.012 140.457 69.748C140.009 69.484 139.653 69.116 139.389 68.644C139.133 68.164 139.005 67.612 139.005 66.988C139.005 66.348 139.137 65.792 139.401 65.32C139.665 64.84 140.025 64.468 140.481 64.204C140.937 63.94 141.449 63.808 142.017 63.808C142.593 63.808 143.105 63.94 143.553 64.204C144.001 64.468 144.353 64.836 144.609 65.308C144.873 65.78 145.005 66.336 145.005 66.976C145.005 67.616 144.873 68.172 144.609 68.644C144.353 69.116 143.997 69.484 143.541 69.748C143.085 70.012 142.569 70.144 141.993 70.144ZM141.993 69.112C142.321 69.112 142.617 69.032 142.881 68.872C143.153 68.712 143.369 68.476 143.529 68.164C143.697 67.844 143.781 67.448 143.781 66.976C143.781 66.504 143.701 66.112 143.541 65.8C143.381 65.48 143.165 65.24 142.893 65.08C142.629 64.92 142.337 64.84 142.017 64.84C141.697 64.84 141.401 64.92 141.129 65.08C140.857 65.24 140.637 65.48 140.469 65.8C140.309 66.112 140.229 66.504 140.229 66.976C140.229 67.448 140.309 67.844 140.469 68.164C140.637 68.476 140.853 68.712 141.117 68.872C141.389 69.032 141.681 69.112 141.993 69.112ZM148.397 70.144C147.925 70.144 147.513 70.048 147.161 69.856C146.817 69.664 146.549 69.376 146.357 68.992C146.173 68.608 146.081 68.124 146.081 67.54V63.952H147.281V67.408C147.281 67.976 147.405 68.404 147.653 68.692C147.901 68.98 148.257 69.124 148.721 69.124C149.033 69.124 149.313 69.048 149.561 68.896C149.817 68.744 150.017 68.524 150.161 68.236C150.305 67.948 150.377 67.596 150.377 67.18V63.952H151.577V70H150.509L150.425 68.968C150.241 69.336 149.973 69.624 149.621 69.832C149.269 70.04 148.861 70.144 148.397 70.144ZM152.98 70V63.952H154.06L154.168 65.092C154.304 64.82 154.48 64.592 154.696 64.408C154.912 64.216 155.164 64.068 155.452 63.964C155.748 63.86 156.084 63.808 156.46 63.808V65.08H156.028C155.78 65.08 155.544 65.112 155.32 65.176C155.096 65.232 154.896 65.332 154.72 65.476C154.552 65.62 154.42 65.816 154.324 66.064C154.228 66.312 154.18 66.62 154.18 66.988V70H152.98ZM160.476 70V63.136C160.476 62.72 160.544 62.38 160.68 62.116C160.824 61.852 161.032 61.66 161.304 61.54C161.576 61.42 161.904 61.36 162.288 61.36H162.996V62.38H162.48C162.192 62.38 161.984 62.44 161.856 62.56C161.736 62.672 161.676 62.872 161.676 63.16V70H160.476ZM159.588 64.972V63.952H163.128V64.972H159.588ZM164.107 70V63.952H165.187L165.295 65.092C165.431 64.82 165.607 64.592 165.823 64.408C166.039 64.216 166.291 64.068 166.579 63.964C166.875 63.86 167.211 63.808 167.587 63.808V65.08H167.155C166.907 65.08 166.671 65.112 166.447 65.176C166.223 65.232 166.023 65.332 165.847 65.476C165.679 65.62 165.547 65.816 165.451 66.064C165.355 66.312 165.307 66.62 165.307 66.988V70H164.107ZM168.533 70V63.952H169.733V70H168.533ZM169.145 62.812C168.913 62.812 168.721 62.74 168.569 62.596C168.425 62.452 168.353 62.268 168.353 62.044C168.353 61.828 168.425 61.652 168.569 61.516C168.721 61.372 168.913 61.3 169.145 61.3C169.369 61.3 169.557 61.372 169.709 61.516C169.861 61.652 169.937 61.828 169.937 62.044C169.937 62.268 169.861 62.452 169.709 62.596C169.557 62.74 169.369 62.812 169.145 62.812ZM173.945 70.144C173.369 70.144 172.857 70.012 172.409 69.748C171.961 69.484 171.609 69.116 171.353 68.644C171.105 68.172 170.981 67.624 170.981 67C170.981 66.36 171.105 65.804 171.353 65.332C171.609 64.852 171.961 64.48 172.409 64.216C172.857 63.944 173.377 63.808 173.969 63.808C174.561 63.808 175.069 63.94 175.493 64.204C175.917 64.468 176.245 64.82 176.477 65.26C176.709 65.692 176.825 66.172 176.825 66.7C176.825 66.78 176.821 66.868 176.813 66.964C176.813 67.052 176.809 67.152 176.801 67.264H171.857V66.412H175.625C175.601 65.908 175.433 65.516 175.121 65.236C174.809 64.948 174.421 64.804 173.957 64.804C173.629 64.804 173.329 64.88 173.057 65.032C172.785 65.176 172.565 65.392 172.397 65.68C172.237 65.96 172.157 66.316 172.157 66.748V67.084C172.157 67.532 172.237 67.912 172.397 68.224C172.565 68.528 172.785 68.76 173.057 68.92C173.329 69.072 173.625 69.148 173.945 69.148C174.329 69.148 174.645 69.064 174.893 68.896C175.141 68.728 175.325 68.5 175.445 68.212H176.645C176.541 68.58 176.365 68.912 176.117 69.208C175.869 69.496 175.561 69.724 175.193 69.892C174.833 70.06 174.417 70.144 173.945 70.144ZM177.918 70V63.952H178.998L179.07 64.984C179.262 64.624 179.534 64.34 179.886 64.132C180.238 63.916 180.642 63.808 181.098 63.808C181.578 63.808 181.99 63.904 182.334 64.096C182.678 64.288 182.946 64.58 183.138 64.972C183.33 65.356 183.426 65.84 183.426 66.424V70H182.226V66.544C182.226 65.984 182.102 65.56 181.854 65.272C181.606 64.984 181.246 64.84 180.774 64.84C180.462 64.84 180.182 64.916 179.934 65.068C179.686 65.212 179.486 65.428 179.334 65.716C179.19 66.004 179.118 66.356 179.118 66.772V70H177.918ZM187.409 70.144C186.833 70.144 186.325 70.008 185.885 69.736C185.445 69.456 185.101 69.08 184.853 68.608C184.613 68.128 184.493 67.584 184.493 66.976C184.493 66.36 184.613 65.816 184.853 65.344C185.101 64.872 185.445 64.5 185.885 64.228C186.333 63.948 186.845 63.808 187.421 63.808C187.893 63.808 188.309 63.904 188.669 64.096C189.029 64.28 189.309 64.544 189.509 64.888V61.36H190.709V70H189.629L189.509 69.064C189.389 69.248 189.233 69.424 189.041 69.592C188.849 69.752 188.617 69.884 188.345 69.988C188.073 70.092 187.761 70.144 187.409 70.144ZM187.601 69.1C187.977 69.1 188.309 69.012 188.597 68.836C188.885 68.66 189.105 68.412 189.257 68.092C189.417 67.772 189.497 67.4 189.497 66.976C189.497 66.552 189.417 66.184 189.257 65.872C189.105 65.552 188.885 65.304 188.597 65.128C188.309 64.944 187.977 64.852 187.601 64.852C187.241 64.852 186.917 64.944 186.629 65.128C186.341 65.304 186.117 65.552 185.957 65.872C185.797 66.184 185.717 66.552 185.717 66.976C185.717 67.4 185.797 67.772 185.957 68.092C186.117 68.412 186.341 68.66 186.629 68.836C186.917 69.012 187.241 69.1 187.601 69.1ZM194.45 70.144C193.938 70.144 193.49 70.06 193.106 69.892C192.722 69.724 192.418 69.488 192.194 69.184C191.97 68.88 191.834 68.524 191.786 68.116H193.01C193.05 68.308 193.126 68.484 193.238 68.644C193.358 68.804 193.518 68.932 193.718 69.028C193.926 69.124 194.17 69.172 194.45 69.172C194.714 69.172 194.93 69.136 195.098 69.064C195.274 68.984 195.402 68.88 195.482 68.752C195.562 68.616 195.602 68.472 195.602 68.32C195.602 68.096 195.546 67.928 195.434 67.816C195.33 67.696 195.17 67.604 194.954 67.54C194.746 67.468 194.494 67.404 194.198 67.348C193.918 67.3 193.646 67.236 193.382 67.156C193.126 67.068 192.894 66.96 192.686 66.832C192.486 66.704 192.326 66.544 192.206 66.352C192.086 66.152 192.026 65.908 192.026 65.62C192.026 65.276 192.118 64.968 192.302 64.696C192.486 64.416 192.746 64.2 193.082 64.048C193.426 63.888 193.83 63.808 194.294 63.808C194.966 63.808 195.506 63.968 195.914 64.288C196.322 64.608 196.562 65.06 196.634 65.644H195.47C195.438 65.372 195.318 65.164 195.11 65.02C194.902 64.868 194.626 64.792 194.282 64.792C193.938 64.792 193.674 64.86 193.49 64.996C193.306 65.132 193.214 65.312 193.214 65.536C193.214 65.68 193.266 65.808 193.37 65.92C193.474 66.032 193.626 66.128 193.826 66.208C194.034 66.28 194.286 66.348 194.582 66.412C195.006 66.492 195.386 66.592 195.722 66.712C196.058 66.832 196.326 67.008 196.526 67.24C196.726 67.472 196.826 67.804 196.826 68.236C196.834 68.612 196.738 68.944 196.538 69.232C196.346 69.52 196.07 69.744 195.71 69.904C195.358 70.064 194.938 70.144 194.45 70.144ZM199.678 72.64V71.62H200.158C200.446 71.62 200.65 71.56 200.77 71.44C200.89 71.32 200.95 71.12 200.95 70.84V63.952H202.15V70.864C202.15 71.28 202.078 71.62 201.934 71.884C201.798 72.148 201.594 72.34 201.322 72.46C201.05 72.58 200.722 72.64 200.338 72.64H199.678ZM201.562 62.812C201.33 62.812 201.138 62.74 200.986 62.596C200.842 62.452 200.77 62.268 200.77 62.044C200.77 61.828 200.842 61.652 200.986 61.516C201.138 61.372 201.33 61.3 201.562 61.3C201.786 61.3 201.97 61.372 202.114 61.516C202.266 61.652 202.342 61.828 202.342 62.044C202.342 62.268 202.266 62.452 202.114 62.596C201.97 62.74 201.786 62.812 201.562 62.812ZM206.373 70.144C205.805 70.144 205.293 70.012 204.837 69.748C204.389 69.484 204.033 69.116 203.769 68.644C203.513 68.164 203.385 67.612 203.385 66.988C203.385 66.348 203.517 65.792 203.781 65.32C204.045 64.84 204.405 64.468 204.861 64.204C205.317 63.94 205.829 63.808 206.397 63.808C206.973 63.808 207.485 63.94 207.933 64.204C208.381 64.468 208.733 64.836 208.989 65.308C209.253 65.78 209.385 66.336 209.385 66.976C209.385 67.616 209.253 68.172 208.989 68.644C208.733 69.116 208.377 69.484 207.921 69.748C207.465 70.012 206.949 70.144 206.373 70.144ZM206.373 69.112C206.701 69.112 206.997 69.032 207.261 68.872C207.533 68.712 207.749 68.476 207.909 68.164C208.077 67.844 208.161 67.448 208.161 66.976C208.161 66.504 208.081 66.112 207.921 65.8C207.761 65.48 207.545 65.24 207.273 65.08C207.009 64.92 206.717 64.84 206.397 64.84C206.077 64.84 205.781 64.92 205.509 65.08C205.237 65.24 205.017 65.48 204.849 65.8C204.689 66.112 204.609 66.504 204.609 66.976C204.609 67.448 204.689 67.844 204.849 68.164C205.017 68.476 205.233 68.712 205.497 68.872C205.769 69.032 206.061 69.112 206.373 69.112ZM210.641 70V63.952H211.841V70H210.641ZM211.253 62.812C211.021 62.812 210.829 62.74 210.677 62.596C210.533 62.452 210.461 62.268 210.461 62.044C210.461 61.828 210.533 61.652 210.677 61.516C210.829 61.372 211.021 61.3 211.253 61.3C211.477 61.3 211.665 61.372 211.817 61.516C211.969 61.652 212.045 61.828 212.045 62.044C212.045 62.268 211.969 62.452 211.817 62.596C211.665 62.74 211.477 62.812 211.253 62.812ZM213.317 70V63.952H214.397L214.469 64.984C214.661 64.624 214.933 64.34 215.285 64.132C215.637 63.916 216.041 63.808 216.497 63.808C216.977 63.808 217.389 63.904 217.733 64.096C218.077 64.288 218.345 64.58 218.537 64.972C218.729 65.356 218.825 65.84 218.825 66.424V70H217.625V66.544C217.625 65.984 217.501 65.56 217.253 65.272C217.005 64.984 216.645 64.84 216.173 64.84C215.861 64.84 215.581 64.916 215.333 65.068C215.085 65.212 214.885 65.428 214.733 65.716C214.589 66.004 214.517 66.356 214.517 66.772V70H213.317ZM222.616 70C222.232 70 221.9 69.94 221.62 69.82C221.34 69.7 221.124 69.5 220.972 69.22C220.82 68.94 220.744 68.56 220.744 68.08V64.972H219.7V63.952H220.744L220.888 62.44H221.944V63.952H223.66V64.972H221.944V68.092C221.944 68.436 222.016 68.672 222.16 68.8C222.304 68.92 222.552 68.98 222.904 68.98H223.6V70H222.616ZM23.876 90V81.6H25.292L28.136 87.276L30.968 81.6H32.396V90H31.196V83.7L28.592 88.824H27.668L25.076 83.712V90H23.876ZM33.3616 90L36.4456 81.6H37.7536L40.8376 90H39.5536L37.0936 83.04L34.6216 90H33.3616ZM34.7536 87.924L35.0896 86.964H39.0376L39.3736 87.924H34.7536ZM41.7944 90V81.6H42.9944V90H41.7944ZM49.4979 90.144C49.0259 90.144 48.6139 90.048 48.2619 89.856C47.9179 89.664 47.6499 89.376 47.4579 88.992C47.2739 88.608 47.1819 88.124 47.1819 87.54V83.952H48.3819V87.408C48.3819 87.976 48.5059 88.404 48.7539 88.692C49.0019 88.98 49.3579 89.124 49.8219 89.124C50.1339 89.124 50.4139 89.048 50.6619 88.896C50.9179 88.744 51.1179 88.524 51.2619 88.236C51.4059 87.948 51.4779 87.596 51.4779 87.18V83.952H52.6779V90H51.6099L51.5259 88.968C51.3419 89.336 51.0739 89.624 50.7219 89.832C50.3699 90.04 49.9619 90.144 49.4979 90.144ZM56.4208 90.144C55.9088 90.144 55.4608 90.06 55.0768 89.892C54.6928 89.724 54.3888 89.488 54.1648 89.184C53.9408 88.88 53.8048 88.524 53.7568 88.116H54.9808C55.0208 88.308 55.0968 88.484 55.2088 88.644C55.3288 88.804 55.4888 88.932 55.6888 89.028C55.8968 89.124 56.1408 89.172 56.4208 89.172C56.6848 89.172 56.9008 89.136 57.0688 89.064C57.2448 88.984 57.3728 88.88 57.4528 88.752C57.5328 88.616 57.5728 88.472 57.5728 88.32C57.5728 88.096 57.5168 87.928 57.4048 87.816C57.3008 87.696 57.1408 87.604 56.9248 87.54C56.7168 87.468 56.4648 87.404 56.1688 87.348C55.8888 87.3 55.6168 87.236 55.3528 87.156C55.0968 87.068 54.8648 86.96 54.6568 86.832C54.4568 86.704 54.2968 86.544 54.1768 86.352C54.0568 86.152 53.9968 85.908 53.9968 85.62C53.9968 85.276 54.0888 84.968 54.2728 84.696C54.4568 84.416 54.7168 84.2 55.0528 84.048C55.3968 83.888 55.8008 83.808 56.2648 83.808C56.9368 83.808 57.4768 83.968 57.8848 84.288C58.2928 84.608 58.5328 85.06 58.6048 85.644H57.4408C57.4088 85.372 57.2888 85.164 57.0808 85.02C56.8728 84.868 56.5968 84.792 56.2528 84.792C55.9088 84.792 55.6448 84.86 55.4608 84.996C55.2768 85.132 55.1848 85.312 55.1848 85.536C55.1848 85.68 55.2368 85.808 55.3408 85.92C55.4448 86.032 55.5968 86.128 55.7968 86.208C56.0048 86.28 56.2568 86.348 56.5528 86.412C56.9768 86.492 57.3568 86.592 57.6928 86.712C58.0288 86.832 58.2968 87.008 58.4968 87.24C58.6968 87.472 58.7968 87.804 58.7968 88.236C58.8048 88.612 58.7088 88.944 58.5088 89.232C58.3168 89.52 58.0408 89.744 57.6808 89.904C57.3288 90.064 56.9088 90.144 56.4208 90.144ZM60.0538 90V83.952H61.2538V90H60.0538ZM60.6658 82.812C60.4338 82.812 60.2418 82.74 60.0898 82.596C59.9458 82.452 59.8738 82.268 59.8738 82.044C59.8738 81.828 59.9458 81.652 60.0898 81.516C60.2418 81.372 60.4338 81.3 60.6658 81.3C60.8898 81.3 61.0778 81.372 61.2298 81.516C61.3818 81.652 61.4578 81.828 61.4578 82.044C61.4578 82.268 61.3818 82.452 61.2298 82.596C61.0778 82.74 60.8898 82.812 60.6658 82.812ZM62.7297 90V83.952H63.8097L63.8817 84.984C64.0737 84.624 64.3457 84.34 64.6977 84.132C65.0497 83.916 65.4537 83.808 65.9097 83.808C66.3897 83.808 66.8017 83.904 67.1457 84.096C67.4898 84.288 67.7578 84.58 67.9497 84.972C68.1417 85.356 68.2377 85.84 68.2377 86.424V90H67.0377V86.544C67.0377 85.984 66.9137 85.56 66.6658 85.272C66.4177 84.984 66.0577 84.84 65.5857 84.84C65.2737 84.84 64.9937 84.916 64.7457 85.068C64.4977 85.212 64.2977 85.428 64.1457 85.716C64.0017 86.004 63.9297 86.356 63.9297 86.772V90H62.7297ZM71.9927 92.784C71.4407 92.784 70.9527 92.712 70.5287 92.568C70.1047 92.432 69.7767 92.22 69.5447 91.932C69.3127 91.644 69.1967 91.292 69.1967 90.876C69.1967 90.66 69.2447 90.44 69.3407 90.216C69.4367 90 69.5927 89.792 69.8087 89.592C70.0247 89.392 70.3167 89.212 70.6847 89.052L71.3567 89.592C70.9487 89.744 70.6727 89.924 70.5287 90.132C70.3927 90.348 70.3247 90.556 70.3247 90.756C70.3247 90.996 70.3967 91.196 70.5407 91.356C70.6847 91.516 70.8807 91.636 71.1287 91.716C71.3847 91.796 71.6727 91.836 71.9927 91.836C72.3047 91.836 72.5767 91.792 72.8087 91.704C73.0407 91.616 73.2207 91.492 73.3487 91.332C73.4767 91.172 73.5407 90.984 73.5407 90.768C73.5407 90.512 73.4447 90.296 73.2527 90.12C73.0607 89.952 72.6927 89.852 72.1487 89.82C71.6927 89.788 71.3047 89.744 70.9847 89.688C70.6727 89.632 70.4047 89.564 70.1807 89.484C69.9647 89.404 69.7807 89.316 69.6287 89.22C69.4847 89.124 69.3607 89.024 69.2567 88.92V88.644L70.4567 87.408L71.4287 87.744L70.1207 88.956L70.3727 88.416C70.4607 88.472 70.5447 88.528 70.6247 88.584C70.7047 88.632 70.8127 88.676 70.9487 88.716C71.0847 88.756 71.2687 88.792 71.5007 88.824C71.7327 88.856 72.0367 88.888 72.4127 88.92C72.9567 88.96 73.3927 89.056 73.7207 89.208C74.0567 89.36 74.3007 89.564 74.4527 89.82C74.6047 90.076 74.6807 90.38 74.6807 90.732C74.6807 91.076 74.5847 91.404 74.3927 91.716C74.2087 92.028 73.9167 92.284 73.5167 92.484C73.1247 92.684 72.6167 92.784 71.9927 92.784ZM71.9927 88.14C71.4807 88.14 71.0447 88.044 70.6847 87.852C70.3327 87.66 70.0607 87.4 69.8687 87.072C69.6847 86.744 69.5927 86.38 69.5927 85.98C69.5927 85.572 69.6847 85.208 69.8687 84.888C70.0607 84.56 70.3367 84.3 70.6967 84.108C71.0567 83.908 71.4887 83.808 71.9927 83.808C72.4967 83.808 72.9247 83.908 73.2767 84.108C73.6367 84.3 73.9087 84.56 74.0927 84.888C74.2847 85.208 74.3807 85.572 74.3807 85.98C74.3807 86.38 74.2847 86.744 74.0927 87.072C73.9087 87.4 73.6367 87.66 73.2767 87.852C72.9247 88.044 72.4967 88.14 71.9927 88.14ZM71.9927 87.18C72.3847 87.18 72.6967 87.08 72.9287 86.88C73.1607 86.672 73.2767 86.372 73.2767 85.98C73.2767 85.588 73.1607 85.292 72.9287 85.092C72.6967 84.884 72.3847 84.78 71.9927 84.78C71.6007 84.78 71.2847 84.884 71.0447 85.092C70.8047 85.292 70.6847 85.588 70.6847 85.98C70.6847 86.372 70.8047 86.672 71.0447 86.88C71.2847 87.08 71.6007 87.18 71.9927 87.18ZM72.9767 84.9L72.6887 83.952H75.1727V84.78L72.9767 84.9ZM79.6628 92.64L81.1388 89.328H80.7908L78.4028 83.952H79.6988L81.5948 88.344L83.5028 83.952H84.7628L80.9228 92.64H79.6628ZM87.7915 90.144C87.2235 90.144 86.7115 90.012 86.2555 89.748C85.8075 89.484 85.4515 89.116 85.1875 88.644C84.9315 88.164 84.8035 87.612 84.8035 86.988C84.8035 86.348 84.9355 85.792 85.1995 85.32C85.4635 84.84 85.8235 84.468 86.2795 84.204C86.7355 83.94 87.2475 83.808 87.8155 83.808C88.3915 83.808 88.9035 83.94 89.3515 84.204C89.7995 84.468 90.1515 84.836 90.4075 85.308C90.6715 85.78 90.8035 86.336 90.8035 86.976C90.8035 87.616 90.6715 88.172 90.4075 88.644C90.1515 89.116 89.7955 89.484 89.3395 89.748C88.8835 90.012 88.3675 90.144 87.7915 90.144ZM87.7915 89.112C88.1195 89.112 88.4155 89.032 88.6795 88.872C88.9515 88.712 89.1675 88.476 89.3275 88.164C89.4955 87.844 89.5795 87.448 89.5795 86.976C89.5795 86.504 89.4995 86.112 89.3395 85.8C89.1795 85.48 88.9635 85.24 88.6915 85.08C88.4275 84.92 88.1355 84.84 87.8155 84.84C87.4955 84.84 87.1995 84.92 86.9275 85.08C86.6555 85.24 86.4355 85.48 86.2675 85.8C86.1075 86.112 86.0275 86.504 86.0275 86.976C86.0275 87.448 86.1075 87.844 86.2675 88.164C86.4355 88.476 86.6515 88.712 86.9155 88.872C87.1875 89.032 87.4795 89.112 87.7915 89.112ZM94.1951 90.144C93.7231 90.144 93.3111 90.048 92.9591 89.856C92.6151 89.664 92.3471 89.376 92.1551 88.992C91.9711 88.608 91.8791 88.124 91.8791 87.54V83.952H93.0791V87.408C93.0791 87.976 93.2031 88.404 93.4511 88.692C93.6991 88.98 94.0551 89.124 94.5191 89.124C94.8311 89.124 95.1111 89.048 95.3591 88.896C95.6151 88.744 95.8151 88.524 95.9591 88.236C96.1031 87.948 96.1751 87.596 96.1751 87.18V83.952H97.3751V90H96.3071L96.2231 88.968C96.0391 89.336 95.7711 89.624 95.4191 89.832C95.0671 90.04 94.6591 90.144 94.1951 90.144ZM98.778 90V83.952H99.858L99.966 85.092C100.102 84.82 100.278 84.592 100.494 84.408C100.71 84.216 100.962 84.068 101.25 83.964C101.546 83.86 101.882 83.808 102.258 83.808V85.08H101.826C101.578 85.08 101.342 85.112 101.118 85.176C100.894 85.232 100.694 85.332 100.518 85.476C100.35 85.62 100.218 85.816 100.122 86.064C100.026 86.312 99.978 86.62 99.978 86.988V90H98.778ZM105.95 90V83.952H107.03L107.138 85.092C107.274 84.82 107.45 84.592 107.666 84.408C107.882 84.216 108.134 84.068 108.422 83.964C108.718 83.86 109.054 83.808 109.43 83.808V85.08H108.998C108.75 85.08 108.514 85.112 108.29 85.176C108.066 85.232 107.866 85.332 107.69 85.476C107.522 85.62 107.39 85.816 107.294 86.064C107.198 86.312 107.15 86.62 107.15 86.988V90H105.95ZM112.853 90.144C112.277 90.144 111.765 90.012 111.317 89.748C110.869 89.484 110.517 89.116 110.261 88.644C110.013 88.172 109.889 87.624 109.889 87C109.889 86.36 110.013 85.804 110.261 85.332C110.517 84.852 110.869 84.48 111.317 84.216C111.765 83.944 112.285 83.808 112.877 83.808C113.469 83.808 113.977 83.94 114.401 84.204C114.825 84.468 115.153 84.82 115.385 85.26C115.617 85.692 115.733 86.172 115.733 86.7C115.733 86.78 115.729 86.868 115.721 86.964C115.721 87.052 115.717 87.152 115.709 87.264H110.765V86.412H114.533C114.509 85.908 114.341 85.516 114.029 85.236C113.717 84.948 113.329 84.804 112.865 84.804C112.537 84.804 112.237 84.88 111.965 85.032C111.693 85.176 111.473 85.392 111.305 85.68C111.145 85.96 111.065 86.316 111.065 86.748V87.084C111.065 87.532 111.145 87.912 111.305 88.224C111.473 88.528 111.693 88.76 111.965 88.92C112.237 89.072 112.533 89.148 112.853 89.148C113.237 89.148 113.553 89.064 113.801 88.896C114.049 88.728 114.233 88.5 114.353 88.212H115.553C115.449 88.58 115.273 88.912 115.025 89.208C114.777 89.496 114.469 89.724 114.101 89.892C113.741 90.06 113.325 90.144 112.853 90.144ZM117.15 90V83.136C117.15 82.72 117.218 82.38 117.354 82.116C117.498 81.852 117.706 81.66 117.978 81.54C118.25 81.42 118.578 81.36 118.962 81.36H119.67V82.38H119.154C118.866 82.38 118.658 82.44 118.53 82.56C118.41 82.672 118.35 82.872 118.35 83.16V90H117.15ZM116.262 84.972V83.952H119.802V84.972H116.262ZM123.283 90.144C122.707 90.144 122.195 90.012 121.747 89.748C121.299 89.484 120.947 89.116 120.691 88.644C120.443 88.172 120.319 87.624 120.319 87C120.319 86.36 120.443 85.804 120.691 85.332C120.947 84.852 121.299 84.48 121.747 84.216C122.195 83.944 122.715 83.808 123.307 83.808C123.899 83.808 124.407 83.94 124.831 84.204C125.255 84.468 125.583 84.82 125.815 85.26C126.047 85.692 126.163 86.172 126.163 86.7C126.163 86.78 126.159 86.868 126.151 86.964C126.151 87.052 126.147 87.152 126.139 87.264H121.195V86.412H124.963C124.939 85.908 124.771 85.516 124.459 85.236C124.147 84.948 123.759 84.804 123.295 84.804C122.967 84.804 122.667 84.88 122.395 85.032C122.123 85.176 121.903 85.392 121.735 85.68C121.575 85.96 121.495 86.316 121.495 86.748V87.084C121.495 87.532 121.575 87.912 121.735 88.224C121.903 88.528 122.123 88.76 122.395 88.92C122.667 89.072 122.963 89.148 123.283 89.148C123.667 89.148 123.983 89.064 124.231 88.896C124.479 88.728 124.663 88.5 124.783 88.212H125.983C125.879 88.58 125.703 88.912 125.455 89.208C125.207 89.496 124.899 89.724 124.531 89.892C124.171 90.06 123.755 90.144 123.283 90.144ZM127.256 90V83.952H128.336L128.444 85.092C128.58 84.82 128.756 84.592 128.972 84.408C129.188 84.216 129.44 84.068 129.728 83.964C130.024 83.86 130.36 83.808 130.736 83.808V85.08H130.304C130.056 85.08 129.82 85.112 129.596 85.176C129.372 85.232 129.172 85.332 128.996 85.476C128.828 85.62 128.696 85.816 128.6 86.064C128.504 86.312 128.456 86.62 128.456 86.988V90H127.256ZM133.602 90.144C133.106 90.144 132.694 90.06 132.366 89.892C132.038 89.724 131.794 89.5 131.634 89.22C131.474 88.932 131.394 88.624 131.394 88.296C131.394 87.896 131.498 87.556 131.706 87.276C131.914 86.988 132.21 86.768 132.594 86.616C132.978 86.464 133.438 86.388 133.974 86.388H135.546C135.546 86.036 135.494 85.744 135.39 85.512C135.286 85.28 135.13 85.108 134.922 84.996C134.722 84.876 134.466 84.816 134.154 84.816C133.794 84.816 133.486 84.904 133.23 85.08C132.974 85.248 132.814 85.5 132.75 85.836H131.55C131.598 85.412 131.742 85.052 131.982 84.756C132.23 84.452 132.546 84.22 132.93 84.06C133.314 83.892 133.722 83.808 134.154 83.808C134.722 83.808 135.198 83.908 135.582 84.108C135.966 84.308 136.254 84.592 136.446 84.96C136.646 85.32 136.746 85.752 136.746 86.256V90H135.702L135.606 88.98C135.518 89.14 135.414 89.292 135.294 89.436C135.174 89.58 135.03 89.704 134.862 89.808C134.702 89.912 134.514 89.992 134.298 90.048C134.09 90.112 133.858 90.144 133.602 90.144ZM133.83 89.172C134.086 89.172 134.318 89.12 134.526 89.016C134.734 88.912 134.91 88.772 135.054 88.596C135.206 88.412 135.318 88.208 135.39 87.984C135.47 87.752 135.514 87.516 135.522 87.276V87.24H134.094C133.75 87.24 133.47 87.284 133.254 87.372C133.046 87.452 132.894 87.564 132.798 87.708C132.702 87.852 132.654 88.02 132.654 88.212C132.654 88.412 132.698 88.584 132.786 88.728C132.882 88.864 133.018 88.972 133.194 89.052C133.37 89.132 133.582 89.172 133.83 89.172ZM138.038 90V81.36H139.238V90H138.038ZM147.22 90.144C146.396 90.144 145.684 89.964 145.084 89.604C144.492 89.236 144.032 88.728 143.704 88.08C143.384 87.424 143.224 86.664 143.224 85.8C143.224 84.944 143.384 84.188 143.704 83.532C144.032 82.876 144.492 82.368 145.084 82.008C145.684 81.64 146.396 81.456 147.22 81.456C148.204 81.456 149 81.692 149.608 82.164C150.224 82.636 150.616 83.3 150.784 84.156H149.464C149.344 83.66 149.096 83.264 148.72 82.968C148.352 82.672 147.852 82.524 147.22 82.524C146.652 82.524 146.16 82.656 145.744 82.92C145.328 83.184 145.008 83.56 144.784 84.048C144.56 84.536 144.448 85.12 144.448 85.8C144.448 86.48 144.56 87.068 144.784 87.564C145.008 88.052 145.328 88.428 145.744 88.692C146.16 88.948 146.652 89.076 147.22 89.076C147.852 89.076 148.352 88.936 148.72 88.656C149.096 88.368 149.344 87.98 149.464 87.492H150.784C150.616 88.324 150.224 88.976 149.608 89.448C149 89.912 148.204 90.144 147.22 90.144ZM154.679 90.144C154.111 90.144 153.599 90.012 153.143 89.748C152.695 89.484 152.339 89.116 152.075 88.644C151.819 88.164 151.691 87.612 151.691 86.988C151.691 86.348 151.823 85.792 152.087 85.32C152.351 84.84 152.711 84.468 153.167 84.204C153.623 83.94 154.135 83.808 154.703 83.808C155.279 83.808 155.791 83.94 156.239 84.204C156.687 84.468 157.039 84.836 157.295 85.308C157.559 85.78 157.691 86.336 157.691 86.976C157.691 87.616 157.559 88.172 157.295 88.644C157.039 89.116 156.683 89.484 156.227 89.748C155.771 90.012 155.255 90.144 154.679 90.144ZM154.679 89.112C155.007 89.112 155.303 89.032 155.567 88.872C155.839 88.712 156.055 88.476 156.215 88.164C156.383 87.844 156.467 87.448 156.467 86.976C156.467 86.504 156.387 86.112 156.227 85.8C156.067 85.48 155.851 85.24 155.579 85.08C155.315 84.92 155.023 84.84 154.703 84.84C154.383 84.84 154.087 84.92 153.815 85.08C153.543 85.24 153.323 85.48 153.155 85.8C152.995 86.112 152.915 86.504 152.915 86.976C152.915 87.448 152.995 87.844 153.155 88.164C153.323 88.476 153.539 88.712 153.803 88.872C154.075 89.032 154.367 89.112 154.679 89.112ZM161.551 90.144C160.975 90.144 160.467 90.008 160.027 89.736C159.587 89.456 159.243 89.08 158.995 88.608C158.755 88.128 158.635 87.584 158.635 86.976C158.635 86.36 158.755 85.816 158.995 85.344C159.243 84.872 159.587 84.5 160.027 84.228C160.475 83.948 160.987 83.808 161.563 83.808C162.035 83.808 162.451 83.904 162.811 84.096C163.171 84.28 163.451 84.544 163.651 84.888V81.36H164.851V90H163.771L163.651 89.064C163.531 89.248 163.375 89.424 163.183 89.592C162.991 89.752 162.759 89.884 162.487 89.988C162.215 90.092 161.903 90.144 161.551 90.144ZM161.743 89.1C162.119 89.1 162.451 89.012 162.739 88.836C163.027 88.66 163.247 88.412 163.399 88.092C163.559 87.772 163.639 87.4 163.639 86.976C163.639 86.552 163.559 86.184 163.399 85.872C163.247 85.552 163.027 85.304 162.739 85.128C162.451 84.944 162.119 84.852 161.743 84.852C161.383 84.852 161.059 84.944 160.771 85.128C160.483 85.304 160.259 85.552 160.099 85.872C159.939 86.184 159.859 86.552 159.859 86.976C159.859 87.4 159.939 87.772 160.099 88.092C160.259 88.412 160.483 88.66 160.771 88.836C161.059 89.012 161.383 89.1 161.743 89.1ZM168.988 90.144C168.412 90.144 167.9 90.012 167.452 89.748C167.004 89.484 166.652 89.116 166.396 88.644C166.148 88.172 166.024 87.624 166.024 87C166.024 86.36 166.148 85.804 166.396 85.332C166.652 84.852 167.004 84.48 167.452 84.216C167.9 83.944 168.42 83.808 169.012 83.808C169.604 83.808 170.112 83.94 170.536 84.204C170.96 84.468 171.288 84.82 171.52 85.26C171.752 85.692 171.868 86.172 171.868 86.7C171.868 86.78 171.864 86.868 171.856 86.964C171.856 87.052 171.852 87.152 171.844 87.264H166.9V86.412H170.668C170.644 85.908 170.476 85.516 170.164 85.236C169.852 84.948 169.464 84.804 169 84.804C168.672 84.804 168.372 84.88 168.1 85.032C167.828 85.176 167.608 85.392 167.44 85.68C167.28 85.96 167.2 86.316 167.2 86.748V87.084C167.2 87.532 167.28 87.912 167.44 88.224C167.608 88.528 167.828 88.76 168.1 88.92C168.372 89.072 168.668 89.148 168.988 89.148C169.372 89.148 169.688 89.064 169.936 88.896C170.184 88.728 170.368 88.5 170.488 88.212H171.688C171.584 88.58 171.408 88.912 171.16 89.208C170.912 89.496 170.604 89.724 170.236 89.892C169.876 90.06 169.46 90.144 168.988 90.144Z" fill="white"/>
<path d="M194.28 87.5112C194.28 87.5112 191.628 85.7444 192.208 85.1874C192.788 84.63 195.633 85.8553 196.282 86.683C196.93 87.5107 196.604 88.0903 196.069 88.1413C195.535 88.1922 194.28 87.5112 194.28 87.5112Z" fill="white" stroke="#263238" stroke-width="0.504062" stroke-miterlimit="10" stroke-linecap="round" stroke-linejoin="round"/>
<path d="M196.518 85.4768C196.518 85.4768 192.409 83.3401 193.395 85.3125C194.381 87.2849 196.846 89.093 197.833 89.586C198.819 90.0789 204.243 89.9146 204.243 89.9146C204.243 89.9146 203.257 88.1065 202.27 87.6136C201.284 87.1201 196.518 85.4768 196.518 85.4768Z" fill="white" stroke="#263238" stroke-width="0.504062" stroke-miterlimit="10" stroke-linecap="round" stroke-linejoin="round"/>
<path d="M200.46 85.4799C200.46 85.4799 195.036 82.5216 194.872 83.6719C194.707 84.8226 199.145 88.6026 200.624 89.2599C202.103 89.9172 204.24 89.9172 204.24 89.9172L200.46 85.4799Z" fill="white" stroke="#263238" stroke-width="0.504062" stroke-miterlimit="10" stroke-linecap="round" stroke-linejoin="round"/>
<path d="M221.828 90.5423C221.828 90.5423 219.856 85.9402 218.377 85.2829C216.897 84.6256 203.584 85.9402 203.584 85.9402C203.584 85.9402 197.174 80.6808 197.668 83.3105C198.161 85.9402 202.27 89.0629 203.42 89.885C204.57 90.7066 213.117 90.378 213.117 90.378L215.747 92.8434L221.828 90.5423Z" fill="white" stroke="#263238" stroke-width="0.504062" stroke-miterlimit="10" stroke-linecap="round" stroke-linejoin="round"/>
<path d="M302.738 97.9478C302.738 97.9478 302.196 98.9534 302.506 99.8819C302.815 100.81 303.666 101.584 303.666 101.584L304.053 103.982L309.313 104.214L307.147 96.168L302.738 97.9478Z" fill="white" stroke="#263238" stroke-width="0.504062" stroke-miterlimit="10" stroke-linecap="round" stroke-linejoin="round"/>
<path d="M299.164 82.9852C299.164 82.9852 301.359 97.2497 301.688 98.1278C302.017 99.0058 304.541 99.9933 305.418 99.5542C306.296 99.1152 304.76 97.0304 304.76 97.0304L305.199 83.3144C305.199 83.3144 301.469 81.8879 299.164 82.9852Z" fill="#263238" stroke="#263238" stroke-width="0.504062" stroke-miterlimit="10" stroke-linecap="round" stroke-linejoin="round"/>
<path d="M305.31 87.4847C305.31 87.4847 302.238 87.2654 302.128 87.8138C302.018 88.3623 302.018 90.2278 302.567 90.4476C303.116 90.6668 306.846 90.996 307.505 90.7767C308.163 90.5575 308.931 89.2403 308.273 88.2529C307.614 87.2654 305.31 87.4847 305.31 87.4847Z" fill="white" stroke="#263238" stroke-width="0.504062" stroke-miterlimit="10" stroke-linecap="round" stroke-linejoin="round"/>
<path d="M305.309 90.9919C305.309 90.9919 302.346 90.9919 302.456 91.6502C302.566 92.3085 302.237 93.735 303.444 93.9542C304.651 94.1735 306.736 94.0641 307.832 93.8444C308.93 93.6251 309.259 92.308 308.381 91.5403C307.503 90.7726 305.309 90.9919 305.309 90.9919Z" fill="white" stroke="#263238" stroke-width="0.504062" stroke-miterlimit="10" stroke-linecap="round" stroke-linejoin="round"/>
<path d="M300.546 91.8362C300.546 91.8362 300.168 89.0705 299.276 89.1481C298.611 89.2061 297.021 89.7061 297.166 90.9239C297.311 92.1422 298.028 94.1025 298.56 95.0869C299.093 96.0714 300.448 95.9988 300.924 94.9342C301.4 93.8696 300.546 91.8362 300.546 91.8362Z" fill="white" stroke="#263238" stroke-width="0.504062" stroke-miterlimit="10" stroke-linecap="round" stroke-linejoin="round"/>
<path d="M305.475 93.9596C305.475 93.9596 302.794 93.9596 302.893 94.5927C302.993 95.2258 302.695 96.5973 303.787 96.8085C304.879 97.0197 306.766 96.9139 307.759 96.7032C308.752 96.492 309.049 95.2263 308.255 94.4873C307.461 93.7484 305.475 93.9596 305.475 93.9596Z" fill="white" stroke="#263238" stroke-width="0.504062" stroke-miterlimit="10" stroke-linecap="round" stroke-linejoin="round"/>
<path d="M305.599 96.3671C305.599 96.3671 303.357 96.3671 303.44 96.8968C303.523 97.4266 303.273 98.5738 304.187 98.7503C305.101 98.9267 306.679 98.8385 307.51 98.662C308.34 98.4856 308.589 97.4261 307.925 96.8086C307.26 96.1906 305.599 96.3671 305.599 96.3671Z" fill="white" stroke="#263238" stroke-width="0.504062" stroke-miterlimit="10" stroke-linecap="round" stroke-linejoin="round"/>
<path d="M298.55 68.5512C295.455 68.4907 292.797 70.4268 291.651 73.1059C291.264 74.0112 291.051 75.0062 291.051 76.0531C291.051 77.8738 291.698 79.5438 292.777 80.8407C294.152 82.5006 296.407 83.6867 298.55 83.5546C305.134 83.1498 322.392 92.3928 322.392 92.3928V59.7109C322.392 59.7109 305.382 68.6853 298.55 68.5512Z" fill="white" stroke="#263238" stroke-width="0.504062" stroke-miterlimit="10" stroke-linecap="round" stroke-linejoin="round"/>
<path d="M297.212 76.318C297.212 72.7609 299.193 69.6669 302.111 68.0781C300.765 68.3901 299.547 68.5691 298.55 68.5494C295.455 68.4889 292.797 70.425 291.651 73.1041C291.264 74.0094 291.051 75.0044 291.051 76.0514C291.051 77.8721 291.698 79.542 292.777 80.839C294.152 82.4988 296.407 83.6849 298.55 83.5528C299.21 83.512 299.982 83.5725 300.829 83.7071C298.631 81.9913 297.212 79.3233 297.212 76.318Z" fill="#D7D7D7" stroke="#263238" stroke-width="0.504062" stroke-miterlimit="10" stroke-linecap="round" stroke-linejoin="round"/>
<path d="M338.262 79.917C340.397 71.1486 335.019 62.3101 326.25 60.1758C317.482 58.0414 308.643 63.4194 306.509 72.1878C304.375 80.9562 309.753 89.7947 318.521 91.929C327.29 94.0634 336.128 88.6854 338.262 79.917Z" fill="white" stroke="#263238" stroke-width="0.504062" stroke-miterlimit="10" stroke-linecap="round" stroke-linejoin="round"/>
<path d="M336.322 76.0499C336.322 83.7418 330.085 89.9786 322.393 89.9786C318.082 89.9786 314.226 88.0208 311.675 84.9395C309.671 82.5306 308.469 79.4306 308.469 76.0499C308.469 74.1062 308.865 72.2588 309.583 70.5777C311.711 65.6032 316.645 62.1211 322.393 62.1211C330.085 62.1211 336.322 68.3579 336.322 76.0499Z" fill="#A6A6A6" stroke="#263238" stroke-width="0.504062" stroke-miterlimit="10" stroke-linecap="round" stroke-linejoin="round"/>
<path d="M322.393 72.6458V79.4491L311.675 84.9399C309.671 82.531 308.469 79.431 308.469 76.0502C308.469 74.1066 308.865 72.2592 309.583 70.5781L322.393 72.6458Z" fill="white" stroke="#263238" stroke-width="0.504062" stroke-miterlimit="10" stroke-linecap="round" stroke-linejoin="round"/>
<path d="M325.796 76.0499C325.796 77.9285 324.273 79.4518 322.394 79.4518C320.515 79.4518 318.992 77.929 318.992 76.0499C318.992 74.1712 320.515 72.6484 322.394 72.6484C324.273 72.6479 325.796 74.1712 325.796 76.0499Z" fill="white" stroke="#263238" stroke-width="0.504062" stroke-miterlimit="10" stroke-linecap="round" stroke-linejoin="round"/>
<path d="M302.95 104.192L302.406 101.909L309.473 101.039L309.313 104.21L302.95 104.192Z" fill="white" stroke="#263238" stroke-width="0.504062" stroke-miterlimit="10" stroke-linecap="round" stroke-linejoin="round"/>
<path d="M215.326 93.756L213.695 91.147L221.197 87.3418L221.827 90.5406L215.326 93.756Z" fill="white" stroke="#263238" stroke-width="0.504062" stroke-miterlimit="10" stroke-linecap="round" stroke-linejoin="round"/>
<path d="M260.914 89.977C260.914 89.977 248.86 88.6377 247.788 89.1735C246.716 89.7093 231.447 107.792 231.447 107.792L222.071 89.0399L214.168 92.5225C214.168 92.5225 224.08 126.276 225.687 126.678C227.294 127.079 242.563 116.9 242.563 116.9L241.626 130.294C241.626 130.294 244.438 141.545 256.895 143.688C269.352 145.832 276.719 136.187 278.326 132.973C279.933 129.759 281.407 125.07 281.407 125.07L287.166 108.06C287.166 108.06 303.373 121.32 306.99 122.927C310.606 124.534 313.955 126.008 314.356 125.204C314.758 124.4 310.74 102.97 310.74 102.97L302.168 103.371L302.57 106.72C302.57 106.72 291.453 92.1203 290.515 90.6469C289.578 89.1735 286.765 89.4412 283.417 88.5036C280.068 87.5661 260.914 89.977 260.914 89.977Z" fill="#D7D7D7" stroke="#263238" stroke-width="0.504062" stroke-miterlimit="10" stroke-linecap="round" stroke-linejoin="round"/>
<path d="M242.562 116.902L251.537 110.205" stroke="#263238" stroke-width="0.504062" stroke-miterlimit="10" stroke-linecap="round" stroke-linejoin="round"/>
<path d="M248.324 112.749L252.878 111.945" stroke="#263238" stroke-width="0.504062" stroke-miterlimit="10" stroke-linecap="round" stroke-linejoin="round"/>
<path d="M287.168 108.06L290.248 97.2109" stroke="#263238" stroke-width="0.504062" stroke-miterlimit="10" stroke-linecap="round" stroke-linejoin="round"/>
<path d="M288.375 104.578L291.724 99.8906" stroke="#263238" stroke-width="0.504062" stroke-miterlimit="10" stroke-linecap="round" stroke-linejoin="round"/>
<path d="M302.969 114.52L303.104 117.169" stroke="#263238" stroke-width="0.504062" stroke-miterlimit="10" stroke-linecap="round" stroke-linejoin="round"/>
<path d="M302.57 106.723L302.815 111.497" stroke="#263238" stroke-width="0.504062" stroke-miterlimit="10" stroke-linecap="round" stroke-linejoin="round"/>
<path d="M231.445 107.795L234.258 113.688" stroke="#263238" stroke-width="0.504062" stroke-miterlimit="10" stroke-linecap="round" stroke-linejoin="round"/>
<path d="M265.467 88.508L259.573 89.5797C259.573 89.5797 257.43 91.3207 256.225 95.3391C255.019 99.3575 254.617 102.84 254.617 102.84L259.707 103.108L255.689 107.126C255.689 107.126 256.895 108.867 259.439 112.618C261.984 116.368 266.002 120.655 266.002 120.655L258.501 130.298C258.501 130.298 267.609 128.289 273.235 122.128C278.861 115.967 282.21 106.725 282.21 106.725L277.789 103.242L282.477 102.305C282.477 102.305 283.415 94.6702 278.459 89.7143C273.503 84.7578 265.467 88.508 265.467 88.508Z" fill="#D7D7D7" stroke="#263238" stroke-width="0.504062" stroke-miterlimit="10" stroke-linecap="round" stroke-linejoin="round"/>
<path d="M278.728 91.7243C278.728 91.7243 277.162 94.8197 276.854 100.563C276.61 105.05 274.256 110.766 272.178 114.81C270.53 118.025 269.055 120.186 268.949 119.854C268.949 119.854 268.079 118.463 266.692 114.414C266.356 113.442 265.992 112.314 265.6 111.01C263.592 104.313 261.851 93.4653 262.653 91.3235C263.459 89.1818 263.993 88.2422 263.993 88.2422C270.423 96.9473 278.728 91.7243 278.728 91.7243Z" fill="white" stroke="#263238" stroke-width="0.504062" stroke-miterlimit="10" stroke-linecap="round" stroke-linejoin="round"/>
<path d="M270.556 110.07L272.178 114.805C270.529 118.02 269.054 120.18 268.949 119.849C268.949 119.849 268.078 118.457 266.691 114.409L268.949 110.337L266.71 106.15L269.349 103.506L272.965 107.122L270.556 110.07Z" fill="#263238" stroke="#263238" stroke-width="0.504062" stroke-miterlimit="10" stroke-linecap="round" stroke-linejoin="round"/>
<path d="M264.93 108.06L269.35 103.506L274.734 108.583" stroke="#263238" stroke-width="0.504062" stroke-miterlimit="10" stroke-linecap="round" stroke-linejoin="round"/>
<path d="M263.992 88.2402C263.992 88.2402 264.126 92.2586 265.6 96.1429C267.073 100.027 269.35 103.51 269.35 103.51L275.645 94.5355C275.645 94.5355 268.815 95.2054 263.992 88.2402Z" stroke="#263238" stroke-width="0.504062" stroke-miterlimit="10" stroke-linecap="round" stroke-linejoin="round"/>
<path d="M283.156 74.0458C283.156 74.0458 285.069 73.7438 285.069 76.3609C285.069 78.978 283.961 82.199 283.961 82.199L283.156 74.0458Z" fill="white" stroke="#263238" stroke-width="0.504062" stroke-miterlimit="10" stroke-linecap="round" stroke-linejoin="round"/>
<path d="M282.48 64.397C282.48 64.397 283.819 76.5857 283.953 80.2018C284.087 83.8185 283.686 87.0329 282.48 88.6403C281.274 90.2478 276.452 96.6766 273.908 96.9448C271.363 97.2124 268.55 95.8731 267.478 94.9356C266.407 93.998 261.317 85.9612 261.317 85.9612C261.317 85.9612 257.433 85.6936 256.495 80.6036C255.558 75.5135 260.781 76.7193 260.781 76.7193C260.781 76.7193 257.969 72.2991 257.701 68.0131C257.433 63.7271 256.629 62.1196 268.148 61.8519C279.667 61.5843 282.48 64.397 282.48 64.397Z" fill="white" stroke="#263238" stroke-width="0.504062" stroke-miterlimit="10" stroke-linecap="round" stroke-linejoin="round"/>
<path d="M276.452 72.9707L279.667 84.0878L274.711 82.6144" stroke="#263238" stroke-width="0.504062" stroke-miterlimit="10" stroke-linecap="round" stroke-linejoin="round"/>
<path d="M269.752 81.2754L265.867 82.0794" stroke="#263238" stroke-width="0.504062" stroke-miterlimit="10" stroke-linecap="round" stroke-linejoin="round"/>
<path d="M267.875 81.9434C267.875 81.9434 268.813 85.56 273.099 86.2294C277.385 86.8993 279.528 86.0953 279.528 86.0953" stroke="#263238" stroke-width="0.504062" stroke-miterlimit="10" stroke-linecap="round" stroke-linejoin="round"/>
<path d="M268.947 84.0859C268.947 84.0859 268.813 90.7829 271.224 91.0511C273.634 91.3187 273.099 86.2292 273.099 86.2292C273.099 86.2292 270.822 85.6934 268.947 84.0859Z" fill="#263238" stroke="#263238" stroke-width="0.504062" stroke-miterlimit="10" stroke-linecap="round" stroke-linejoin="round"/>
<path d="M269.445 88.7188C269.774 89.9411 270.321 90.9522 271.229 91.0531C271.765 91.1125 272.154 90.9069 272.437 90.552C271.972 89.7279 270.354 89.0459 269.445 88.7188Z" fill="white" stroke="#263238" stroke-width="0.504062" stroke-miterlimit="10" stroke-linecap="round" stroke-linejoin="round"/>
<path d="M270.622 76.0522C270.622 76.7921 270.292 77.3915 269.885 77.3915C269.479 77.3915 269.148 76.7916 269.148 76.0522C269.148 75.3127 269.478 74.7129 269.885 74.7129C270.292 74.7129 270.622 75.3122 270.622 76.0522Z" fill="#263238"/>
<path d="M279.598 74.8452C279.598 75.5851 279.269 76.1844 278.861 76.1844C278.455 76.1844 278.125 75.5846 278.125 74.8452C278.125 74.1057 278.455 73.5059 278.861 73.5059C279.269 73.5059 279.598 74.1057 279.598 74.8452Z" fill="#263238"/>
<path d="M267.477 73.7742C267.477 73.7742 269.218 71.4974 272.567 71.8991" stroke="#263238" stroke-width="0.504062" stroke-miterlimit="10" stroke-linecap="round" stroke-linejoin="round"/>
<path d="M276.852 71.3659C276.852 71.3659 278.593 68.1515 281.406 69.7585" stroke="#263238" stroke-width="0.504062" stroke-miterlimit="10" stroke-linecap="round" stroke-linejoin="round"/>
<path d="M268.28 64.6654C268.28 64.6654 264.128 63.9955 265.066 65.2012C266.003 66.4069 268.147 67.8798 267.075 68.8179C266.003 69.7554 263.325 71.3629 263.458 72.1663C263.592 72.9698 263.86 76.3188 263.458 77.1223C263.057 77.9258 262.119 78.0598 261.181 77.9258C260.244 77.7917 258.905 75.3808 258.369 74.7114C257.833 74.042 253.011 69.2196 253.949 65.3353C254.886 61.451 264.932 58.3702 264.932 58.3702C264.932 58.3702 271.362 51.1374 275.648 51.0033C279.934 50.8692 278.327 54.8876 278.193 55.2893C278.059 55.6911 284.354 54.8876 285.559 58.7719C286.765 62.6562 286.363 63.7278 280.872 65.2012C275.379 66.6746 268.28 64.6654 268.28 64.6654Z" fill="#263238" stroke="#263238" stroke-width="0.504062" stroke-miterlimit="10" stroke-linecap="round" stroke-linejoin="round"/>
<path d="M352.768 59.3184L341.851 62.1416L344.11 63.2707L337.898 65.1534L350.51 63.4592L347.31 61.9531L352.768 59.3184Z" fill="#263238"/>
<path d="M355.009 85.8967L343.966 83.6113L345.494 85.6215L339.09 84.5685L351.154 88.6157L348.947 85.8519L355.009 85.8967Z" fill="#263238"/>
<path d="M343.133 104.097L333.835 97.717L334.467 100.162L328.969 96.7129L338.527 105.113L337.562 101.71L343.133 104.097Z" fill="#263238"/>
</g>
<defs>
<linearGradient id="paint0_linear_6579_23929" x1="184" y1="-55.5" x2="181.5" y2="150.5" gradientUnits="userSpaceOnUse">
<stop stop-color="#5A5ACD"/>
<stop offset="0.68" stop-color="#8918E5"/>
</linearGradient>
<clipPath id="clip0_6579_23929">
<rect width="357" height="131" rx="7" fill="white"/>
</clipPath>
</defs>
</svg>
